<?xml version="1.0" encoding="utf-8"?>
<!-- Generator: Adobe Illustrator 26.5.0, SVG Export Plug-In . SVG Version: 6.00 Build 0)  -->
<svg version="1.1" id="Calque_1" xmlns="http://www.w3.org/2000/svg" xmlns:xlink="http://www.w3.org/1999/xlink" x="0px" y="0px"
	 viewBox="0 0 433.7 236.7" style="enable-background:new 0 0 433.7 236.7;" xml:space="preserve">
<style type="text/css">
	.st0{fill:#C0187B;}
	.st1{fill:#FDFDFD;}
</style>
<path class="st0" d="M6.2,122.8c0,0-8.9-108.5,110.8-122c68.2-7.7,102.9,40.5,102.9,40.5s30.7-40.8,93.7-40.9
	c94.6-0.2,122,83.4,120.1,122.4h-61.4L371.4,90c0,0-3-57.3-56.4-58.7c-58.3-1.5-65.2,56-65.2,56v35.5h-61l0.4-37.8
	c0,0-9.3-54.1-61-54.1c-52.9,0-60.2,56-60.2,56v35.9H6.2z"/>
<g>
	<path class="st1" d="M26.3,184.2h-3.6v-27.4l-7.1,18.6h-2.2l-7-18.6v27.4H3.1v-31.8H8l6.8,17.7l6.5-17.7h5V184.2z"/>
	<path class="st1" d="M48.9,184.8c-1.6,0-3-0.2-4.2-0.7c-1.2-0.5-2.2-1.2-3-2.2c-0.9-1.1-1.6-2.4-2-4c-0.4-1.5-0.6-3.5-0.6-5.7
		v-19.8h3.6v19.8c0,1.5,0.1,2.7,0.2,3.7c0.2,1,0.5,1.9,0.9,2.7c0.5,0.9,1.1,1.5,2,1.9c0.8,0.4,1.8,0.7,3,0.7c1.1,0,2.1-0.2,3-0.7
		c0.9-0.4,1.6-1.1,2-1.9c0.4-0.8,0.8-1.7,0.9-2.7s0.2-2.2,0.2-3.6v-20h3.6v19.8c0,2.2-0.2,4.1-0.6,5.7c-0.4,1.6-1.1,2.9-2,4
		c-0.9,1-1.9,1.7-3,2.2S50.5,184.8,48.9,184.8z"/>
	<path class="st1" d="M87.1,184.2H71.4v-31.8H75v28h12.1V184.2z"/>
	<path class="st1" d="M117.2,184.2h-3.6v-15.6h-12.5v15.6h-3.6v-31.8h3.6v12.5h12.5v-12.5h3.6V184.2z"/>
	<path class="st1" d="M149.4,156c1,1.4,1.8,3.1,2.4,5.2c0.6,2.1,0.9,4.4,0.9,7.1c0,2.6-0.3,4.9-0.8,7c-0.6,2.1-1.4,3.8-2.4,5.2
		c-1.1,1.5-2.4,2.6-3.9,3.3c-1.5,0.7-3.1,1.1-4.9,1.1c-1.8,0-3.5-0.4-4.9-1.1c-1.5-0.7-2.7-1.8-3.8-3.2c-1-1.4-1.8-3.1-2.4-5.2
		s-0.8-4.4-0.8-7c0-2.7,0.3-5,0.8-7c0.6-2,1.4-3.8,2.4-5.2c1-1.4,2.3-2.5,3.8-3.2c1.5-0.7,3.1-1.1,4.9-1.1c1.8,0,3.5,0.4,5,1.1
		C147.1,153.6,148.4,154.6,149.4,156z M148.9,168.3c0-2.1-0.2-4-0.6-5.6s-0.9-3-1.6-4c-0.7-1.1-1.6-1.9-2.6-2.5
		c-1-0.5-2.2-0.8-3.4-0.8c-1.3,0-2.5,0.3-3.4,0.8c-1,0.5-1.8,1.4-2.6,2.5c-0.7,1.1-1.3,2.4-1.6,4.1c-0.4,1.6-0.6,3.5-0.6,5.6
		c0,4.2,0.7,7.4,2.2,9.6c1.5,2.2,3.5,3.3,6,3.3s4.5-1.1,6-3.3C148.2,175.6,148.9,172.4,148.9,168.3z"/>
	<path class="st1" d="M173.6,184.8c-1.6,0-3-0.2-4.2-0.7c-1.2-0.5-2.2-1.2-3-2.2c-0.9-1.1-1.6-2.4-2-4c-0.4-1.5-0.6-3.5-0.6-5.7
		v-19.8h3.6v19.8c0,1.5,0.1,2.7,0.2,3.7c0.2,1,0.5,1.9,0.9,2.7c0.5,0.9,1.1,1.5,2,1.9c0.8,0.4,1.8,0.7,3,0.7c1.1,0,2.1-0.2,3-0.7
		c0.9-0.4,1.6-1.1,2-1.9c0.4-0.8,0.8-1.7,0.9-2.7s0.2-2.2,0.2-3.6v-20h3.6v19.8c0,2.2-0.2,4.1-0.6,5.7c-0.4,1.6-1.1,2.9-2,4
		c-0.9,1-1.9,1.7-3,2.2S175.3,184.8,173.6,184.8z"/>
	<path class="st1" d="M203.7,184.7c-2,0-3.6-0.2-5-0.7c-1.4-0.5-2.7-1.1-3.9-1.8V177h0.3c1.2,1.3,2.5,2.3,4,3c1.5,0.7,3,1.1,4.3,1.1
		c2,0,3.5-0.5,4.5-1.5c1-1,1.5-2.3,1.5-3.9c0-1.3-0.3-2.3-0.8-3.1c-0.5-0.8-1.4-1.4-2.5-1.8c-0.8-0.3-1.6-0.5-2.3-0.7
		c-0.7-0.2-1.6-0.4-2.6-0.7c-0.9-0.3-1.8-0.6-2.5-1.1s-1.4-1-2-1.7c-0.6-0.7-1-1.5-1.3-2.5c-0.3-0.9-0.5-2-0.5-3.3
		c0-2.6,0.9-4.7,2.6-6.5c1.7-1.7,3.9-2.6,6.5-2.6c1.5,0,3,0.2,4.3,0.5c1.4,0.4,2.6,0.9,3.8,1.5v5.1h-0.3c-0.9-0.9-2-1.7-3.3-2.4
		c-1.3-0.7-2.8-1-4.2-1c-1.7,0-3,0.5-4.1,1.4c-1,0.9-1.5,2.1-1.5,3.6c0,1.4,0.3,2.4,0.9,3.2c0.6,0.8,1.5,1.4,2.6,1.8
		c0.8,0.2,1.7,0.5,2.8,0.8c1.1,0.3,2,0.6,2.7,0.8c1.9,0.7,3.2,1.7,4.1,3c0.9,1.4,1.3,3,1.3,5c0,1.2-0.2,2.5-0.6,3.7
		c-0.4,1.2-1,2.2-1.8,3.1c-0.9,0.9-1.9,1.6-3,2.1S205.4,184.7,203.7,184.7z"/>
	<path class="st1" d="M224.5,184.2v-31.8h16.9v3.8h-13.3v8.7h12.4v3.8h-12.4v11.8h13.3v3.8H224.5z"/>
	<path class="st1" d="M269.2,184.2l9.1-31.8h4.4l9.1,31.8h-3.8l-2.5-8.9h-10.4l-2.5,8.9H269.2z M284.7,171.7l-4.2-15l-4.2,15H284.7z
		"/>
	<path class="st1" d="M317.8,184.2h-15.7v-31.8h3.6v28h12.1V184.2z"/>
	<path class="st1" d="M335.7,184.7c-2,0-3.6-0.2-5-0.7c-1.4-0.5-2.7-1.1-3.9-1.8V177h0.3c1.2,1.3,2.5,2.3,4,3s3,1.1,4.3,1.1
		c2,0,3.5-0.5,4.5-1.5c1-1,1.5-2.3,1.5-3.9c0-1.3-0.3-2.3-0.8-3.1c-0.5-0.8-1.4-1.4-2.5-1.8c-0.8-0.3-1.6-0.5-2.3-0.7
		c-0.7-0.2-1.6-0.4-2.6-0.7c-0.9-0.3-1.8-0.6-2.5-1.1c-0.7-0.4-1.4-1-2-1.7c-0.6-0.7-1-1.5-1.3-2.5c-0.3-0.9-0.5-2-0.5-3.3
		c0-2.6,0.9-4.7,2.6-6.5c1.7-1.7,3.9-2.6,6.5-2.6c1.5,0,3,0.2,4.3,0.5s2.6,0.9,3.8,1.5v5.1h-0.3c-0.9-0.9-2-1.7-3.3-2.4
		c-1.3-0.7-2.8-1-4.2-1c-1.7,0-3,0.5-4.1,1.4c-1,0.9-1.5,2.1-1.5,3.6c0,1.4,0.3,2.4,0.9,3.2c0.6,0.8,1.5,1.4,2.6,1.8
		c0.8,0.2,1.7,0.5,2.8,0.8c1.1,0.3,2,0.6,2.7,0.8c1.9,0.7,3.2,1.7,4.1,3c0.9,1.4,1.3,3,1.3,5c0,1.2-0.2,2.5-0.6,3.7
		c-0.4,1.2-1,2.2-1.8,3.1c-0.9,0.9-1.9,1.6-3,2.1C338.7,184.5,337.4,184.7,335.7,184.7z"/>
	<path class="st1" d="M353.3,184.2l9.1-31.8h4.4l9.1,31.8h-3.8l-2.5-8.9h-10.4l-2.5,8.9H353.3z M368.8,171.7l-4.2-15l-4.2,15H368.8z
		"/>
	<path class="st1" d="M396.7,184.7c-1.8,0-3.4-0.3-4.9-1c-1.5-0.7-2.8-1.7-3.8-3.1c-1.1-1.4-1.9-3.1-2.5-5.2
		c-0.6-2.1-0.9-4.4-0.9-7.1c0-2.7,0.3-5,0.9-7c0.6-2,1.4-3.7,2.5-5.2c1.1-1.4,2.4-2.5,3.8-3.3c1.5-0.7,3.1-1.1,5-1.1
		c0.9,0,1.8,0.1,2.6,0.2c0.8,0.2,1.5,0.4,2.2,0.6c0.6,0.2,1.2,0.5,1.8,0.8s1.2,0.7,1.8,1.1v5.1h-0.3c-0.3-0.3-0.7-0.8-1.2-1.2
		c-0.5-0.5-1.1-1-1.8-1.4c-0.7-0.4-1.4-0.8-2.3-1.1c-0.8-0.3-1.8-0.4-2.8-0.4c-1.2,0-2.2,0.3-3.3,0.8c-1,0.6-1.9,1.4-2.7,2.5
		c-0.8,1.1-1.4,2.4-1.8,4.1c-0.4,1.6-0.6,3.5-0.6,5.5c0,2.2,0.2,4.1,0.7,5.6c0.4,1.6,1.1,2.9,1.8,4c0.8,1.1,1.6,1.8,2.7,2.4
		c1,0.5,2.1,0.8,3.2,0.8c1,0,2-0.1,2.9-0.4c0.9-0.3,1.7-0.7,2.4-1.1c0.7-0.4,1.2-0.9,1.7-1.4s0.9-0.9,1.1-1.2h0.3v5
		c-0.6,0.3-1.2,0.6-1.7,0.9c-0.5,0.3-1.2,0.6-1.9,0.9c-0.8,0.3-1.5,0.5-2.2,0.7C398.7,184.7,397.8,184.7,396.7,184.7z"/>
	<path class="st1" d="M416.1,184.2v-31.8H433v3.8h-13.3v8.7h12.4v3.8h-12.4v11.8H433v3.8H416.1z"/>
	<path class="st1" d="M0,236.7l9.1-31.8h4.4l9.1,31.8h-3.8l-2.5-8.9H6.1l-2.5,8.9H0z M15.5,224.2l-4.2-15l-4.2,15H15.5z"/>
	<path class="st1" d="M48.1,237.3c-1.9,0-3.7-0.3-5.3-1c-1.6-0.7-3-1.7-4.1-3.1c-1.1-1.4-2-3.2-2.6-5.2c-0.6-2.1-0.9-4.5-0.9-7.2
		c0-2.6,0.3-4.9,0.9-6.9c0.6-2,1.5-3.8,2.6-5.2c1.1-1.4,2.5-2.5,4.1-3.2c1.6-0.8,3.4-1.1,5.3-1.1c0.9,0,1.8,0.1,2.6,0.2
		c0.8,0.2,1.6,0.4,2.4,0.6c0.6,0.2,1.3,0.5,2,0.9c0.7,0.4,1.3,0.7,1.8,1v5.1h-0.3c-0.4-0.5-0.9-0.9-1.4-1.3c-0.5-0.4-1.2-0.9-2-1.4
		c-0.7-0.4-1.6-0.8-2.5-1.1c-0.9-0.3-2-0.4-3.1-0.4c-2.6,0-4.7,1.2-6.3,3.5c-1.6,2.3-2.4,5.4-2.4,9.2c0,2.1,0.2,4,0.6,5.6
		c0.4,1.6,1,2.9,1.8,4.1c0.8,1.1,1.7,1.9,2.8,2.5s2.3,0.9,3.7,0.9c1,0,2-0.1,3-0.3c1-0.2,1.9-0.4,2.5-0.8v-8.2h-6.3v-3.7h9.8v13.9
		c-0.5,0.2-1.1,0.5-1.8,0.9c-0.8,0.4-1.5,0.7-2.2,0.9c-0.9,0.3-1.7,0.5-2.4,0.7S49.1,237.3,48.1,237.3z"/>
	<path class="st1" d="M84.4,237.3c-1.9,0-3.7-0.3-5.3-1c-1.6-0.7-3-1.7-4.1-3.1c-1.1-1.4-2-3.2-2.6-5.2c-0.6-2.1-0.9-4.5-0.9-7.2
		c0-2.6,0.3-4.9,0.9-6.9c0.6-2,1.5-3.8,2.6-5.2c1.1-1.4,2.5-2.5,4.1-3.2c1.6-0.8,3.4-1.1,5.3-1.1c0.9,0,1.8,0.1,2.6,0.2
		c0.8,0.2,1.6,0.4,2.4,0.6c0.6,0.2,1.3,0.5,2,0.9c0.7,0.4,1.3,0.7,1.8,1v5.1H93c-0.4-0.5-0.9-0.9-1.4-1.3c-0.5-0.4-1.2-0.9-2-1.4
		c-0.7-0.4-1.6-0.8-2.5-1.1c-0.9-0.3-2-0.4-3.1-0.4c-2.6,0-4.7,1.2-6.3,3.5c-1.6,2.3-2.4,5.4-2.4,9.2c0,2.1,0.2,4,0.6,5.6
		c0.4,1.6,1,2.9,1.8,4.1c0.8,1.1,1.7,1.9,2.8,2.5s2.3,0.9,3.7,0.9c1,0,2-0.1,3-0.3c1-0.2,1.9-0.4,2.5-0.8v-8.2h-6.3v-3.7h9.8v13.9
		c-0.5,0.2-1.1,0.5-1.8,0.9c-0.8,0.4-1.5,0.7-2.2,0.9c-0.9,0.3-1.7,0.5-2.4,0.7S85.5,237.3,84.4,237.3z"/>
	<path class="st1" d="M125.1,236.7h-15.7v-31.8h3.6v28h12.1V236.7z"/>
	<path class="st1" d="M158.3,208.5c1,1.4,1.8,3.1,2.4,5.2c0.6,2.1,0.9,4.4,0.9,7.1c0,2.6-0.3,4.9-0.8,7c-0.6,2.1-1.4,3.8-2.4,5.2
		c-1.1,1.5-2.4,2.6-3.9,3.3c-1.5,0.7-3.1,1.1-4.9,1.1c-1.8,0-3.5-0.4-4.9-1.1c-1.5-0.7-2.7-1.8-3.8-3.2c-1-1.4-1.8-3.1-2.4-5.2
		s-0.8-4.4-0.8-7c0-2.7,0.3-5,0.8-7c0.6-2,1.4-3.8,2.4-5.2c1-1.4,2.3-2.5,3.8-3.2c1.5-0.7,3.1-1.1,4.9-1.1c1.8,0,3.5,0.4,5,1.1
		C156,206.1,157.3,207.1,158.3,208.5z M157.8,220.8c0-2.1-0.2-4-0.6-5.6s-0.9-3-1.6-4c-0.7-1.1-1.6-1.9-2.6-2.5
		c-1-0.5-2.2-0.8-3.4-0.8c-1.3,0-2.5,0.3-3.4,0.8c-1,0.5-1.8,1.4-2.6,2.5c-0.7,1.1-1.3,2.4-1.6,4.1c-0.4,1.6-0.6,3.5-0.6,5.6
		c0,4.2,0.7,7.4,2.2,9.6c1.5,2.2,3.5,3.3,6,3.3s4.5-1.1,6-3.3C157.1,228.1,157.8,224.9,157.8,220.8z"/>
	<path class="st1" d="M200.2,236.7h-3.6v-27.4l-7.1,18.6h-2.2l-7-18.6v27.4H177v-31.8h4.9l6.8,17.7l6.5-17.7h5V236.7z"/>
	<path class="st1" d="M217.2,236.7v-31.8h16.9v3.8h-13.3v8.7h12.4v3.8h-12.4v11.8h13.3v3.8H217.2z"/>
	<path class="st1" d="M270.5,236.7h-4.7l-8.6-12.6h-4.1v12.6h-3.6v-31.8h7c1.6,0,2.9,0.1,3.9,0.3c1,0.2,2,0.7,3,1.4
		c0.9,0.7,1.7,1.6,2.2,2.8s0.8,2.5,0.8,4.2c0,2.3-0.5,4.3-1.5,5.9c-1,1.6-2.4,2.7-4.1,3.5L270.5,236.7z M262.7,213.8
		c0-0.9-0.1-1.7-0.4-2.5c-0.3-0.7-0.7-1.3-1.3-1.8c-0.5-0.4-1.1-0.7-1.8-0.8c-0.7-0.2-1.5-0.2-2.5-0.2h-3.6v12h3.2
		c1,0,2-0.1,2.8-0.3c0.8-0.2,1.5-0.7,2.1-1.3c0.5-0.6,0.9-1.3,1.2-2.1C262.6,215.9,262.7,214.9,262.7,213.8z"/>
	<path class="st1" d="M281.2,236.7l9.1-31.8h4.4l9.1,31.8h-3.8l-2.5-8.9h-10.4l-2.5,8.9H281.2z M296.7,224.2l-4.2-15l-4.2,15H296.7z
		"/>
	<path class="st1" d="M322.2,236.7v-28h-9.1v-3.8h21.8v3.8h-9.1v28H322.2z"/>
	<path class="st1" d="M358.6,236.7H348v-3.2h3.5v-25.3H348v-3.2h10.5v3.2h-3.5v25.3h3.5V236.7z"/>
	<path class="st1" d="M393.6,208.5c1,1.4,1.8,3.1,2.4,5.2c0.6,2.1,0.9,4.4,0.9,7.1c0,2.6-0.3,4.9-0.8,7c-0.6,2.1-1.4,3.8-2.4,5.2
		c-1.1,1.5-2.4,2.6-3.9,3.3c-1.5,0.7-3.1,1.1-4.9,1.1c-1.8,0-3.5-0.4-4.9-1.1s-2.7-1.8-3.8-3.2c-1-1.4-1.8-3.1-2.4-5.2
		c-0.6-2.1-0.8-4.4-0.8-7c0-2.7,0.3-5,0.8-7c0.6-2,1.4-3.8,2.4-5.2c1-1.4,2.3-2.5,3.8-3.2c1.5-0.7,3.1-1.1,4.9-1.1
		c1.8,0,3.5,0.4,5,1.1S392.6,207.1,393.6,208.5z M393.1,220.8c0-2.1-0.2-4-0.6-5.6c-0.4-1.6-0.9-3-1.6-4c-0.7-1.1-1.6-1.9-2.6-2.5
		s-2.1-0.8-3.4-0.8c-1.3,0-2.5,0.3-3.4,0.8c-1,0.5-1.8,1.4-2.6,2.5c-0.7,1.1-1.3,2.4-1.6,4.1c-0.4,1.6-0.6,3.5-0.6,5.6
		c0,4.2,0.7,7.4,2.2,9.6c1.5,2.2,3.5,3.3,6,3.3s4.5-1.1,6-3.3C392.4,228.1,393.1,224.9,393.1,220.8z"/>
	<path class="st1" d="M431.7,236.7h-4l-12-27.4v27.4h-3.4v-31.8h5.1l10.9,25.2v-25.2h3.4V236.7z"/>
</g>
</svg>
