<?xml version="1.0" encoding="utf-8"?>
<!-- Generator: Adobe Illustrator 26.5.0, SVG Export Plug-In . SVG Version: 6.00 Build 0)  -->
<svg version="1.1" xmlns="http://www.w3.org/2000/svg" xmlns:xlink="http://www.w3.org/1999/xlink" x="0px" y="0px"
	 viewBox="0 0 530.9 534.4" style="enable-background:new 0 0 530.9 534.4;" xml:space="preserve">
<style type="text/css">
	.st0{fill:none;stroke:#2F6F98;stroke-width:26;stroke-miterlimit:10;}
	.st1{fill:#2A7099;}
	.st2{fill:#256B95;}
	.st3{fill:none;stroke:#312E2F;stroke-width:26.8416;stroke-miterlimit:10;}
</style>
<g id="Calque_1">
	<g>
		<circle class="st0" cx="265.4" cy="266.5" r="251.2"/>
		<path class="st1" d="M359.2,290.2l11.2-72.9h-70V170c0-19.9,9.8-39.4,41.1-39.4h31.8V68.5c0,0-28.9-4.9-56.5-4.9
			c-57.6,0-95.3,34.9-95.3,98.1v55.6h-64v72.9h64v176.3c12.8,2,26,3.1,39.4,3.1c13.4,0,26.6-1.1,39.4-3.1V290.2H359.2z"/>
	</g>
	<path class="st2" d="M1167.2,742.6c-9.3,0-16.9-6.7-16.9-14.9c0,8.2-7.6,14.9-16.9,14.9c-9.3,0-16.9-6.7-16.9-14.9
		c0,8.2-7.6,14.9-16.9,14.9c-9.3,0-16.9-6.7-16.9-14.9c0,8.2-7.6,14.9-16.9,14.9c-9.3,0-16.9-6.7-16.9-14.9
		c0,8.2-7.6,14.9-16.9,14.9c-9.3,0-16.9-6.7-16.9-14.9c0,8.2-7.6,14.9-16.9,14.9c-9.3,0-16.9-6.7-16.9-14.9
		c0,8.2-7.6,14.9-16.9,14.9c-9.3,0-16.9-6.7-16.9-14.9c0,8.2-7.6,14.9-16.9,14.9c-9.3,0-16.9-6.7-16.9-14.9
		c0,8.2-7.6,14.9-16.9,14.9c-9.3,0-16.9-6.7-16.9-14.9c0,8.2-7.6,14.9-16.9,14.9c-9.3,0-16.9-6.7-16.9-14.9
		c0,8.2-7.6,14.9-16.9,14.9s-16.9-6.7-16.9-14.9c0,8.2-7.6,14.9-16.9,14.9c-9.3,0-16.9-6.7-16.9-14.9c0,8.2-7.6,14.9-16.9,14.9
		c-9.3,0-16.9-6.7-16.9-14.9c0,8.2-7.6,14.9-16.9,14.9c-9.3,0-16.9-6.7-16.9-14.9c0,8.2-7.6,14.9-16.9,14.9
		c-9.3,0-16.9-6.7-16.9-14.9c0,8.2-7.6,14.9-16.9,14.9c-9.3,0-16.9-6.7-16.9-14.9c0,8.2-7.6,14.9-16.9,14.9s-16.9-6.7-16.9-14.9
		c0,8.2-7.6,14.9-16.9,14.9c-9.3,0-16.9-6.7-16.9-14.9c0,8.2-7.6,14.9-16.9,14.9c-9.3,0-16.9-6.7-16.9-14.9
		c0,8.2-7.6,14.9-16.9,14.9c-9.3,0-16.9-6.7-16.9-14.9c0,8.2-7.6,14.9-16.9,14.9c-9.3,0-16.9-6.7-16.9-14.9
		c0,8.2-7.6,14.9-16.9,14.9s-16.9-6.7-16.9-14.9c0,8.2-7.6,14.9-16.9,14.9c-9.3,0-16.9-6.7-16.9-14.9c0,8.2-7.6,14.9-16.9,14.9
		s-16.9-6.7-16.9-14.9c0,8.2-7.6,14.9-16.9,14.9c-9.3,0-16.9-6.7-16.9-14.9c0,8.2-7.6,14.9-16.9,14.9c-9.3,0-16.9-6.7-16.9-14.9
		c0,8.2-7.6,14.9-16.9,14.9c-9.3,0-16.9-6.7-16.9-14.9c0,8.2-7.6,14.9-16.9,14.9c-9.3,0-16.9-6.7-16.9-14.9
		c0,8.2-7.6,14.9-16.9,14.9c-9.3,0-16.9-6.7-16.9-14.9c0,8.2-7.6,14.9-16.9,14.9c-9.3,0-16.9-6.7-16.9-14.9
		c0,8.2-7.6,14.9-16.9,14.9c-9.3,0-16.9-6.7-16.9-14.9c0,8.2-7.6,14.9-16.9,14.9c-9.3,0-16.9-6.7-16.9-14.9
		c0,8.2-7.6,14.9-16.9,14.9c-9.3,0-16.9-6.7-16.9-14.9c0,8.2-7.6,14.9-16.9,14.9c-9.3,0-16.9-6.7-16.9-14.9
		c0,8.2-7.6,14.9-16.9,14.9c-9.3,0-16.9-6.7-16.9-14.9c0,8.2-7.6,14.9-16.9,14.9c-9.3,0-16.9-6.7-16.9-14.9
		c0,8.2-7.6,14.9-16.9,14.9c-9.3,0-16.9-6.7-16.9-14.9c0,8.2-7.6,14.9-16.9,14.9c-9.3,0-16.9-6.7-16.9-14.9
		c0,8.2-7.6,14.9-16.9,14.9c-9.3,0-16.9-6.7-16.9-14.9c0,8.2-7.6,14.9-16.9,14.9c-9.3,0-16.9-6.7-16.9-14.9
		c0,8.2-7.6,14.9-16.9,14.9c-9.3,0-16.9-6.7-16.9-14.9c0,8.2-7.6,14.9-16.9,14.9c-9.3,0-16.9-6.7-16.9-14.9
		c0,8.2-7.6,14.9-16.9,14.9c-9.3,0-16.9-6.7-16.9-14.9c0,8.2-7.6,14.9-16.9,14.9c-9.3,0-16.9-6.7-16.9-14.9
		c0,8.2-7.6,14.9-16.9,14.9c-9.3,0-16.9-6.7-16.9-14.9c0,8.2-7.6,14.9-16.9,14.9c-9.3,0-16.9-6.7-16.9-14.9
		c0,8.2-7.6,14.9-16.9,14.9c-9.3,0-16.9-6.7-16.9-14.9c0,8.2-7.6,14.9-16.9,14.9c-9.3,0-16.9-6.7-16.9-14.9
		c0,8.2-7.6,14.9-16.9,14.9c-9.3,0-16.9-6.7-16.9-14.9c0,8.2-7.6,14.9-16.9,14.9c-9.3,0-16.9-6.7-16.9-14.9
		c0,8.2-7.6,14.9-16.9,14.9c-9.3,0-16.9-6.7-16.9-14.9c0,8.2-7.6,14.9-16.9,14.9c-9.3,0-16.9-6.7-16.9-14.9
		c0,8.2-7.6,14.9-16.9,14.9c-9.3,0-16.9-6.7-16.9-14.9c0,8.2-7.6,14.9-16.9,14.9s-16.9-6.7-16.9-14.9c0,8.2-7.6,14.9-16.9,14.9
		s-16.9-6.7-16.9-14.9c0,8.2-7.6,14.9-16.9,14.9c-9.3,0-16.9-6.7-16.9-14.9c0,8.2-7.6,14.9-16.9,14.9c-9.3,0-16.9-6.7-16.9-14.9
		c0,8.2-7.6,14.9-16.9,14.9c-9.3,0-16.9-6.7-16.9-14.9c0,8.2-7.6,14.9-16.9,14.9c-9.3,0-16.9-6.7-16.9-14.9
		c0,8.2-7.6,14.9-16.9,14.9s-16.9-6.7-16.9-14.9v9.3v17.8v9.3v22.8h674.9h674.9h674.9v-22.8v-9.3V737v-9.3
		C1184.1,735.9,1176.5,742.6,1167.2,742.6z"/>
	<rect x="550" y="-242.9" class="st3" width="239.4" height="116.2"/>
</g>
<g id="Calque_2">
</g>
</svg>
