<?xml version="1.0" encoding="utf-8"?>
<!-- Generator: Adobe Illustrator 26.5.0, SVG Export Plug-In . SVG Version: 6.00 Build 0)  -->
<svg version="1.1" id="Calque_2" xmlns="http://www.w3.org/2000/svg" xmlns:xlink="http://www.w3.org/1999/xlink" x="0px" y="0px"
	 viewBox="0 0 441.5 303.9" style="enable-background:new 0 0 441.5 303.9;" xml:space="preserve">
<style type="text/css">
	.st0{fill:#FDFDFD;}
	.st1{fill:#FFFFFF;}
</style>
<g id="Calque_1">
	
		<image style="overflow:visible;enable-background:new    ;" width="1201" height="448" xlink:href="B3C7C5BB.png"  transform="matrix(0.3676 0 0 0.3676 1.530587e-02 50.0563)">
	</image>
	<g>
		<g>
			<path class="st0" d="M6.5,35.2c-1.6-1-2.9-2.3-3.8-4.1S1.4,27.3,1.4,25v-8.5c0-2.3,0.4-4.3,1.3-6.1s2.2-3.1,3.8-4.1
				s3.5-1.4,5.7-1.4c1.8,0,3.4,0.4,4.9,1.1c1.5,0.8,2.7,1.8,3.8,3.2c1,1.4,1.7,3,2,4.9h-4.5c-0.3-1-0.7-1.8-1.4-2.6
				c-0.6-0.8-1.4-1.4-2.2-1.8c-0.9-0.4-1.7-0.6-2.7-0.6c-1.3,0-2.4,0.3-3.3,0.9c-1,0.6-1.7,1.5-2.2,2.6S5.8,15,5.8,16.5V25
				c0,1.5,0.3,2.7,0.8,3.8c0.5,1.1,1.3,2,2.2,2.6c1,0.6,2.1,0.9,3.3,0.9c0.9,0,1.8-0.2,2.7-0.6c0.8-0.4,1.6-1,2.2-1.7
				c0.6-0.8,1.1-1.7,1.4-2.7h4.5c-0.4,1.8-1,3.5-2.1,4.9c-1,1.4-2.3,2.5-3.8,3.2c-1.5,0.8-3.1,1.1-4.9,1.1
				C10.1,36.6,8.2,36.1,6.5,35.2z"/>
			<path class="st0" d="M32.3,35.4c-1.4-0.8-2.4-1.9-3.1-3.3c-0.7-1.4-1.1-3.2-1.1-5.2v-3.6c0-2,0.4-3.7,1.1-5.2
				c0.7-1.4,1.8-2.5,3.1-3.3c1.4-0.7,3-1.1,4.9-1.1s3.6,0.4,4.9,1.1c1.4,0.7,2.4,1.8,3.1,3.3c0.7,1.4,1.1,3.2,1.1,5.2V27
				c0,2-0.4,3.8-1.1,5.2c-0.7,1.4-1.8,2.5-3.1,3.3c-1.4,0.8-3,1.1-4.9,1.1S33.6,36.2,32.3,35.4z M40.7,31c0.8-1,1.3-2.3,1.3-4v-3.7
				c0-1.7-0.4-3.1-1.3-4c-0.8-0.9-2-1.4-3.5-1.4s-2.7,0.5-3.5,1.4s-1.3,2.3-1.3,4V27c0,1.7,0.4,3.1,1.3,4c0.8,1,2,1.4,3.5,1.4
				S39.9,32,40.7,31z"/>
			<path class="st0" d="M52.6,14.1H57v22.2h-4.4V14.1z M66,22.8c0-1.6-0.4-2.8-1.2-3.6c-0.8-0.9-2-1.3-3.4-1.3s-2.5,0.4-3.3,1.1
				c-0.8,0.8-1.2,1.8-1.2,3.2l-0.4-4.3c0.7-1.3,1.6-2.4,2.7-3.1c1.1-0.7,2.3-1.1,3.7-1.1c2.4,0,4.3,0.8,5.6,2.4c1.3,1.6,2,3.8,2,6.7
				v13.5H66V22.8z"/>
			<path class="st0" d="M81.2,36.2C80,35.9,79,35.6,78,35c-1-0.5-1.9-1.2-2.8-1.9l2.6-3.2c1.2,0.9,2.4,1.6,3.6,2.1
				c1.2,0.5,2.4,0.7,3.5,0.7c1.7,0,3-0.3,3.9-0.8s1.3-1.3,1.3-2.4c0-0.7-0.2-1.2-0.7-1.6s-1.1-0.6-1.8-0.7c-0.7-0.1-1.7-0.2-3-0.3
				c-0.1,0-0.2,0-0.4,0c-0.1,0-0.2,0-0.4,0c-0.1,0-0.1,0-0.2,0s-0.1,0-0.2,0c-1.4-0.1-2.7-0.3-3.7-0.6c-1-0.3-1.8-0.9-2.5-1.7
				c-0.7-0.8-1-2-1-3.6s0.3-2.9,1-3.9c0.6-1,1.6-1.8,2.9-2.3S83,14,84.9,14c1.2,0,2.3,0.1,3.3,0.3s2,0.5,3,1c1,0.4,1.9,1,2.8,1.6
				l-2.6,3.2c-1.1-0.7-2.2-1.2-3.3-1.6C87,18.1,86,18,84.9,18c-1.5,0-2.6,0.3-3.3,0.8c-0.7,0.5-1.1,1.3-1.1,2.3c0,0.6,0.2,1,0.6,1.3
				s1,0.5,1.6,0.6s1.6,0.2,2.7,0.3c0.1,0,0.2,0,0.3,0c0.1,0,0.2,0,0.3,0h0.1h0.1c1.6,0.1,2.9,0.3,4,0.6c1.1,0.3,2,0.9,2.7,1.9
				c0.7,0.9,1.1,2.3,1.1,4c0,1.6-0.3,2.9-1,4c-0.7,1-1.7,1.8-3.1,2.4c-1.4,0.5-3.1,0.8-5.2,0.8C83.6,36.6,82.3,36.5,81.2,36.2z"/>
			<path class="st0" d="M103.5,35.4c-1.5-0.8-2.6-1.9-3.3-3.4c-0.8-1.5-1.1-3.3-1.1-5.4v-2.5c0-2.2,0.4-4.1,1.1-5.6
				c0.7-1.6,1.8-2.7,3.2-3.5c1.4-0.8,3.1-1.2,5-1.2s3.4,0.5,4.7,1.4c1.3,0.9,2.3,2.3,3,4c0.7,1.8,1,3.9,1,6.3V27h-15v-3.5h10.8
				c-0.1-1.8-0.6-3.2-1.4-4.2s-1.9-1.5-3.2-1.5c-1.7,0-2.9,0.5-3.8,1.6s-1.4,2.6-1.4,4.6v2.8c0,1.8,0.5,3.2,1.5,4.2s2.3,1.5,4.1,1.5
				c0.9,0,1.8-0.2,2.6-0.5c0.9-0.4,1.6-0.9,2.3-1.5l2.9,2.9c-1.1,1.1-2.3,1.9-3.7,2.4c-1.4,0.6-2.7,0.9-4.1,0.9
				C106.8,36.6,105,36.2,103.5,35.4z"/>
			<path class="st0" d="M123.2,5.2h4.4v4.4h-4.4V5.2z M123.2,14.1h4.4v22.2h-4.4V14.1z"/>
			<path class="st0" d="M138.6,30.5c0,0.5,0.1,1,0.4,1.3c0.2,0.3,0.6,0.4,1,0.4h2.1v4.1h-2.6c-1.7,0-2.9-0.5-3.8-1.5
				s-1.4-2.5-1.4-4.3V5.2h4.4L138.6,30.5L138.6,30.5z"/>
			<path class="st0" d="M161.5,35.6c-1.1-0.7-2-1.7-2.6-3.1c-0.6-1.4-0.9-3-0.9-4.9v-4.9c0-1.9,0.3-3.5,0.9-4.9
				c0.6-1.4,1.4-2.4,2.6-3.1c1.1-0.7,2.5-1.1,4-1.1c1.3,0,2.5,0.3,3.6,1s2,1.6,2.6,2.9l-0.4,4.5c0-0.9-0.2-1.7-0.5-2.4
				c-0.3-0.7-0.8-1.2-1.5-1.5c-0.6-0.3-1.4-0.5-2.4-0.5c-1.4,0-2.6,0.4-3.3,1.3c-0.8,0.9-1.2,2.2-1.2,3.8v4.8c0,1.6,0.4,2.9,1.2,3.7
				c0.8,0.9,1.9,1.3,3.3,1.3c0.9,0,1.7-0.2,2.4-0.5c0.6-0.4,1.1-0.9,1.5-1.6c0.3-0.7,0.5-1.5,0.5-2.5l0.3,4.7
				c-0.4,1.1-1.2,2-2.2,2.8c-1,0.7-2.2,1.1-3.7,1.1C164,36.6,162.6,36.3,161.5,35.6z M171.2,5.2h4.4v31.1h-4.4V5.2z"/>
			<path class="st0" d="M186.1,35.4c-1.5-0.8-2.6-1.9-3.3-3.4c-0.8-1.5-1.1-3.3-1.1-5.4v-2.5c0-2.2,0.4-4.1,1.1-5.6
				c0.7-1.6,1.8-2.7,3.2-3.5s3.1-1.2,5-1.2s3.4,0.5,4.7,1.4s2.3,2.3,3,4c0.7,1.8,1,3.9,1,6.3V27h-15v-3.5h10.8
				c-0.1-1.8-0.6-3.2-1.4-4.2c-0.8-1-1.9-1.5-3.2-1.5c-1.7,0-2.9,0.5-3.8,1.6c-0.9,1.1-1.4,2.6-1.4,4.6v2.8c0,1.8,0.5,3.2,1.5,4.2
				s2.3,1.5,4.1,1.5c0.9,0,1.8-0.2,2.6-0.5c0.9-0.4,1.6-0.9,2.3-1.5l2.9,2.9c-1.1,1.1-2.3,1.9-3.7,2.4c-1.4,0.6-2.7,0.9-4.1,0.9
				C189.3,36.6,187.5,36.2,186.1,35.4z M188.3,7.6l6.1-7.6l3.1,2.6L191,9.8L188.3,7.6z"/>
			<path class="st0" d="M205.7,14.1h4.4v31.2h-4.4V14.1z M212,35.6c-1-0.7-1.8-1.6-2.3-2.8l0.3-4.6c0,1,0.2,1.8,0.5,2.4
				c0.3,0.7,0.8,1.2,1.5,1.5c0.6,0.4,1.4,0.5,2.4,0.5c1.4,0,2.6-0.4,3.3-1.3c0.8-0.9,1.2-2.1,1.2-3.7v-4.8c0-1.6-0.4-2.9-1.2-3.8
				s-1.9-1.3-3.3-1.3c-0.9,0-1.7,0.2-2.4,0.5c-0.6,0.3-1.1,0.8-1.5,1.5c-0.3,0.7-0.5,1.5-0.5,2.4l-0.4-4.3c0.7-1.3,1.5-2.3,2.6-3
				s2.3-1.1,3.6-1.1c1.6,0,2.9,0.4,4,1.1c1.1,0.7,2,1.7,2.6,3.1s0.9,3,0.9,4.9v4.8c0,1.9-0.3,3.5-0.9,4.8c-0.6,1.3-1.5,2.4-2.6,3.1
				c-1.2,0.7-2.5,1.1-4.1,1.1C214.3,36.6,213.1,36.3,212,35.6z"/>
			<path class="st0" d="M230.5,34.9c-1.4-1.1-2-2.9-2-5.2c0-2.2,0.6-3.8,1.9-4.9c1.2-1.1,3.1-1.6,5.6-1.6h6.3l0.3,3.5H236
				c-1.1,0-2,0.3-2.6,0.8s-0.8,1.3-0.8,2.3c0,1.1,0.4,2,1.1,2.5c0.7,0.5,1.9,0.8,3.4,0.8c1.7,0,2.9-0.2,3.7-0.5
				c0.8-0.4,1.2-0.9,1.2-1.7l0.4,3.1c-0.4,0.6-0.9,1.1-1.4,1.5c-0.6,0.4-1.2,0.7-2,0.9c-0.7,0.2-1.6,0.3-2.5,0.3
				C233.9,36.6,231.8,36,230.5,34.9z M242.1,22.2c0-1.5-0.4-2.6-1.2-3.4s-1.9-1.2-3.3-1.2c-0.9,0-1.8,0.1-2.6,0.4s-1.6,0.6-2.3,1.1
				l-3.2-2.2c0.8-1,1.9-1.8,3.3-2.4c1.4-0.6,2.9-0.8,4.6-0.8c1.8,0,3.4,0.3,4.7,1c1.3,0.6,2.3,1.6,3,2.8s1,2.7,1,4.5v14.3H242V22.2
				H242.1z"/>
			<path class="st0" d="M252.8,14.1h4.4v22.2h-4.4L252.8,14.1L252.8,14.1z M263.6,18.3c-0.6-0.2-1.3-0.4-2-0.4
				c-1.4,0-2.5,0.4-3.2,1.1c-0.8,0.8-1.1,1.8-1.1,3.2l-0.4-4.3c0.7-1.3,1.6-2.4,2.7-3.1c1.1-0.7,2.3-1.1,3.6-1.1
				c1,0,1.9,0.1,2.7,0.4c0.8,0.3,1.5,0.7,2.1,1.3l-2.8,3.8C264.7,18.9,264.2,18.5,263.6,18.3z"/>
			<path class="st0" d="M269.8,14.1h10V18h-10V14.1z M273.3,34.9c-0.8-1-1.3-2.5-1.3-4.4V7.6h4.4v22.9c0,0.5,0.1,1,0.3,1.3
				c0.2,0.3,0.5,0.4,0.9,0.4h2.1v4.1h-2.5C275.5,36.4,274.2,35.9,273.3,34.9z"/>
			<path class="st0" d="M289.6,35.4c-1.5-0.8-2.6-1.9-3.3-3.4c-0.8-1.5-1.1-3.3-1.1-5.4v-2.5c0-2.2,0.4-4.1,1.1-5.6
				c0.7-1.6,1.8-2.7,3.2-3.5c1.4-0.8,3.1-1.2,5-1.2s3.4,0.5,4.7,1.4c1.3,0.9,2.3,2.3,3,4c0.7,1.8,1,3.9,1,6.3V27h-15v-3.5H299
				c-0.1-1.8-0.6-3.2-1.4-4.2s-1.9-1.5-3.2-1.5c-1.7,0-2.9,0.5-3.8,1.6s-1.4,2.6-1.4,4.6v2.8c0,1.8,0.5,3.2,1.5,4.2s2.3,1.5,4.1,1.5
				c0.9,0,1.8-0.2,2.6-0.5c0.9-0.4,1.6-0.9,2.3-1.5l2.9,2.9c-1.1,1.1-2.3,1.9-3.7,2.4c-1.4,0.6-2.7,0.9-4.1,0.9
				C292.8,36.6,291.1,36.2,289.6,35.4z"/>
			<path class="st0" d="M309.3,14.1h4.4v22.2h-4.4V14.1z M322.5,22.8c0-1.6-0.4-2.8-1.2-3.6c-0.8-0.9-1.9-1.3-3.3-1.3
				s-2.5,0.4-3.3,1.1c-0.8,0.8-1.2,1.8-1.2,3.2l-0.4-4.3c0.7-1.3,1.6-2.4,2.7-3.1c1.1-0.7,2.3-1.1,3.7-1.1c1.6,0,2.9,0.4,4,1.1
				c1.1,0.7,1.9,1.7,2.5,3.1s0.9,3,0.9,4.9v13.5h-4.4L322.5,22.8L322.5,22.8z M335.8,22.8c0-1.6-0.4-2.8-1.2-3.6
				c-0.8-0.9-2-1.3-3.4-1.3s-2.4,0.4-3.1,1.2c-0.7,0.8-1.1,2-1.1,3.5l-0.9-4.3c0.7-1.5,1.6-2.6,2.8-3.4c1.1-0.8,2.4-1.2,3.8-1.2
				c1.6,0,3,0.4,4.1,1.1c1.1,0.7,2,1.7,2.6,3.1s0.9,3,0.9,4.9v13.5h-4.4L335.8,22.8L335.8,22.8z"/>
			<path class="st0" d="M350.6,35.4c-1.5-0.8-2.6-1.9-3.3-3.4c-0.8-1.5-1.1-3.3-1.1-5.4v-2.5c0-2.2,0.4-4.1,1.1-5.6
				c0.7-1.6,1.8-2.7,3.2-3.5c1.4-0.8,3.1-1.2,5-1.2s3.4,0.5,4.7,1.4c1.3,0.9,2.3,2.3,3,4c0.7,1.8,1,3.9,1,6.3V27h-15v-3.5H360
				c-0.1-1.8-0.6-3.2-1.4-4.2s-1.9-1.5-3.2-1.5c-1.7,0-2.9,0.5-3.8,1.6s-1.4,2.6-1.4,4.6v2.8c0,1.8,0.5,3.2,1.5,4.2s2.3,1.5,4.1,1.5
				c0.9,0,1.8-0.2,2.6-0.5c0.9-0.4,1.6-0.9,2.3-1.5l2.9,2.9c-1.1,1.1-2.3,1.9-3.7,2.4c-1.4,0.6-2.7,0.9-4.1,0.9
				C353.8,36.6,352.1,36.2,350.6,35.4z"/>
			<path class="st0" d="M370.3,14.1h4.4v22.2h-4.4V14.1z M383.7,22.8c0-1.6-0.4-2.8-1.2-3.6c-0.8-0.9-2-1.3-3.4-1.3
				s-2.5,0.4-3.3,1.1c-0.8,0.8-1.2,1.8-1.2,3.2l-0.4-4.3c0.7-1.3,1.6-2.4,2.7-3.1c1.1-0.7,2.3-1.1,3.7-1.1c2.4,0,4.3,0.8,5.6,2.4
				c1.3,1.6,2,3.8,2,6.7v13.5h-4.4V22.8H383.7z"/>
			<path class="st0" d="M393,14.1h10V18h-10V14.1z M396.5,34.9c-0.8-1-1.3-2.5-1.3-4.4V7.6h4.4v22.9c0,0.5,0.1,1,0.3,1.3
				s0.5,0.4,0.9,0.4h2.1v4.1h-2.5C398.7,36.4,397.4,35.9,396.5,34.9z"/>
			<path class="st0" d="M410,34.9c-1.4-1.1-2-2.9-2-5.2c0-2.2,0.6-3.8,1.9-4.9c1.2-1.1,3.1-1.6,5.6-1.6h6.3l0.3,3.5h-6.6
				c-1.1,0-2,0.3-2.6,0.8s-0.8,1.3-0.8,2.3c0,1.1,0.4,2,1.1,2.5s1.9,0.8,3.4,0.8c1.7,0,2.9-0.2,3.7-0.5c0.8-0.4,1.2-0.9,1.2-1.7
				L422,34c-0.4,0.6-0.9,1.1-1.4,1.5c-0.6,0.4-1.2,0.7-2,0.9c-0.7,0.2-1.6,0.3-2.5,0.3C413.4,36.6,411.3,36,410,34.9z M421.5,22.2
				c0-1.5-0.4-2.6-1.2-3.4c-0.8-0.8-1.9-1.2-3.3-1.2c-0.9,0-1.8,0.1-2.6,0.4c-0.8,0.3-1.6,0.6-2.3,1.1L409,17c0.8-1,1.9-1.8,3.3-2.4
				c1.4-0.6,2.9-0.8,4.6-0.8c1.8,0,3.4,0.3,4.7,1c1.3,0.6,2.3,1.6,3,2.8s1,2.7,1,4.5v14.3h-4.1V22.2z"/>
			<path class="st0" d="M436.7,30.5c0,0.5,0.1,1,0.4,1.3c0.2,0.3,0.6,0.4,1,0.4h2.1v4.1h-2.6c-1.7,0-2.9-0.5-3.8-1.5
				s-1.4-2.5-1.4-4.3V5.2h4.4v25.3H436.7z"/>
		</g>
	</g>
	<g>
		<g>
			<path class="st1" d="M0.2,232.8h13.3v70.4H0.2V232.8z M6.4,261.9h41v12.8h-41C6.4,274.7,6.4,261.9,6.4,261.9z M38.7,232.8H52
				v70.4H38.7V232.8z"/>
			<path class="st1" d="M68.1,300.1c-2.7-2.6-4-6.5-4-11.7c0-5,1.5-8.7,4.5-11.2s7.5-3.7,13.4-3.7h12.6l0.7,10.1H82.1
				c-2,0-3.5,0.4-4.5,1.2c-1,0.8-1.5,2-1.5,3.6s0.6,2.9,1.9,3.7c1.3,0.8,3.2,1.2,5.7,1.2c3.5,0,6.2-0.4,7.9-1.2
				c1.7-0.8,2.6-2.1,2.6-3.8l1,7.3c-0.2,1.8-1,3.3-2.5,4.6c-1.5,1.3-3.3,2.2-5.5,2.8c-2.2,0.6-4.5,0.9-7,0.9
				C74.8,303.9,70.8,302.7,68.1,300.1z M94.2,271.4c0-2.3-0.8-4.1-2.3-5.4s-3.7-1.9-6.6-1.9c-1.9,0-3.7,0.3-5.6,0.9
				s-3.5,1.5-4.9,2.6l-8.2-8.1c2-2.3,4.6-4.1,7.9-5.3s6.9-1.9,10.9-1.9c4.4,0,8.1,0.7,11.2,2.2s5.5,3.6,7.1,6.4s2.4,6.2,2.4,10.1
				v32.3H94.2V271.4z"/>
			<path class="st1" d="M132.6,283.5c0,2.4,0.7,4.3,2.1,5.6c1.4,1.3,3.3,2,5.8,2s4.4-0.7,5.7-2.1s2-3.3,2-5.9l0.7,11
				c-0.9,2.7-2.5,5-4.7,6.9s-4.8,2.8-8,2.8c-5.4,0-9.6-1.7-12.5-5.2s-4.4-8.4-4.4-14.7v-31h13.3V283.5z M148.1,253h13.2v50.2h-13.2
				V253z"/>
			<path class="st1" d="M170.5,253h24.6v11.3h-24.6V253z M178.8,300.1c-2-2.2-3.1-5.6-3.1-9.9v-51.8H189v48.5c0,1.2,0.2,2.2,0.7,2.8
				s1.2,1,2.1,1h3.3v12.8h-6.7C184.1,303.5,180.8,302.3,178.8,300.1z"/>
			<path class="st1" d="M241.2,271.6v12.8h-34.5v-12.8H241.2z"/>
			<path class="st1" d="M255.3,232.8h13.3v70.4h-13.3V232.8z M260.5,262.1H285c1.4,0,2.5-0.3,3.6-1s1.8-1.6,2.4-2.9s0.9-2.7,0.9-4.4
				c0-1.6-0.3-3.1-0.8-4.4c-0.6-1.3-1.4-2.2-2.4-2.9s-2.2-1-3.6-1h-24.5v-12.8h25.6c3.9,0,7.3,0.9,10.2,2.6c2.9,1.7,5.2,4.2,6.8,7.4
				c1.6,3.2,2.4,6.9,2.4,11.1c0,4.2-0.8,7.9-2.4,11.1c-1.6,3.2-3.9,5.6-6.8,7.4c-3,1.7-6.3,2.6-10.2,2.6h-25.6v-12.8H260.5z
				 M275.3,272.7l14.2-2.2l19,32.7h-16.1L275.3,272.7z"/>
			<path class="st1" d="M318.9,232.8h13.3v70.4h-13.3V232.8z M347.9,272.8c0-2.5-0.7-4.4-2.1-5.7c-1.4-1.4-3.4-2-6-2
				c-2.5,0-4.3,0.7-5.7,2.1c-1.3,1.4-2,3.3-2,5.8l-1-11.1c1.5-3.2,3.3-5.5,5.4-7.1c2.1-1.6,4.8-2.4,8-2.4c5.3,0,9.4,1.8,12.3,5.3
				s4.4,8.6,4.4,15.1v30.5h-13.3L347.9,272.8L347.9,272.8z"/>
			<path class="st1" d="M373.5,232.8h13.3v13.3h-13.3V232.8z M373.5,253h13.3v50.2h-13.3V253z"/>
			<path class="st1" d="M399.2,253h13.3v50.2h-13.3V253z M428.2,272.8c0-2.5-0.7-4.4-2.1-5.7c-1.4-1.4-3.4-2-6-2
				c-2.5,0-4.3,0.7-5.7,2.1c-1.3,1.4-2,3.3-2,5.8l-1-11.1c1.5-3.2,3.3-5.5,5.4-7.1c2.1-1.6,4.8-2.4,8-2.4c5.3,0,9.4,1.8,12.3,5.3
				c2.9,3.6,4.4,8.6,4.4,15.1v30.5h-13.3L428.2,272.8L428.2,272.8z"/>
		</g>
	</g>
</g>
</svg>
