<?xml version="1.0" encoding="utf-8"?>
<!-- Generator: Adobe Illustrator 26.5.0, SVG Export Plug-In . SVG Version: 6.00 Build 0)  -->
<svg version="1.1" id="Calque_1" xmlns="http://www.w3.org/2000/svg" xmlns:xlink="http://www.w3.org/1999/xlink" x="0px" y="0px"
	 viewBox="0 0 532 533" style="enable-background:new 0 0 532 533;" xml:space="preserve">
<style type="text/css">
	.st0{fill:none;stroke:#256B95;stroke-width:26.8416;stroke-miterlimit:10;}
	.st1{fill:#256B95;}
</style>
<ellipse transform="matrix(0.7071 -0.7071 0.7071 0.7071 -110.6358 265.8882)" class="st0" cx="265.6" cy="266.5" rx="251" ry="251"/>
<g>
	<g>
		<path class="st1" d="M343.6,171.5c-9.5,0-17.3,7.7-17.3,17.3c0,9.5,7.7,17.3,17.3,17.3c9.5,0,17.3-7.7,17.3-17.3
			C360.8,179.3,353.1,171.5,343.6,171.5z"/>
		<path class="st1" d="M266.8,193.7c-40,0-72.5,32.5-72.5,72.5c0,40,32.5,72.5,72.5,72.5c40,0,72.5-32.5,72.5-72.5
			C339.3,226.2,306.8,193.7,266.8,193.7z M266.8,312.6c-25.6,0-46.4-20.8-46.4-46.4c0-25.6,20.8-46.4,46.4-46.4
			c25.6,0,46.4,20.8,46.4,46.4C313.3,291.7,292.4,312.6,266.8,312.6z"/>
		<path class="st1" d="M324.4,413.3H206.9c-48.7,0-88.4-39.7-88.4-88.4V207.4c0-48.8,39.7-88.4,88.4-88.4h117.5
			c48.7,0,88.4,39.7,88.4,88.4v117.5C412.8,373.6,373.1,413.3,324.4,413.3z M206.9,146.7c-33.5,0-60.7,27.2-60.7,60.7v117.5
			c0,33.5,27.2,60.7,60.7,60.7h117.5c33.5,0,60.7-27.2,60.7-60.7V207.4c0-33.5-27.2-60.7-60.7-60.7H206.9z"/>
	</g>
</g>
</svg>
